PathFileType	4	(X/Y/Z)	G:\Shared drives\HPL_Drive\Nord Sprinting Study\Kristen_Nord_test\Trimmed_Nord000003.trc
DataRate	CameraRate	NumFrames	NumMarkers	Units	OrigDataRate	OrigDataStartFrame	OrigNumFrames
200.00	200.00	      4	52	mm	200.00	1	      1592
Frame#	Time	C7			R_Shoulder			L_Shoulder			Sternum			R_humerus			R_elbow_med			R_elbow_lat			R_forearm			R_wrist_radius			R_wrist_ulna			L_humerus			L_elbow_med			L_elbow_lat			L_forearm			L_wrist_radius			L_wrist_ulna			r.ASIS			r.PSIS			r_IC			L.ASIS			L.PSIS			l_IC			r_thigh1			r_thigh2			r_thigh3			r_thigh4			r_thigh5			r_knee			r_mknee			r_shank_antsup			r_sh2			r_sh3			r_sh4			r_ankle			r_mankle			r_calc			r_5meta			r_toe			L_thigh1			L_thigh2			L_thigh3			L_thigh4			L_knee			L_mknee			L_shank_antsup			L_sh2			L_sh3			L_ankle			L_mankle			L_calc			L_5meta			L_toe			
		X1	Y1	Z1	X2	Y2	Z2	X3	Y3	Z3	X4	Y4	Z4	X5	Y5	Z5	X6	Y6	Z6	X7	Y7	Z7	X8	Y8	Z8	X9	Y9	Z9	X10	Y10	Z10	X11	Y11	Z11	X12	Y12	Z12	X13	Y13	Z13	X14	Y14	Z14	X15	Y15	Z15	X16	Y16	Z16	X17	Y17	Z17	X18	Y18	Z18	X19	Y19	Z19	X20	Y20	Z20	X21	Y21	Z21	X22	Y22	Z22	X23	Y23	Z23	X24	Y24	Z24	X25	Y25	Z25	X26	Y26	Z26	X27	Y27	Z27	X28	Y28	Z28	X29	Y29	Z29	X30	Y30	Z30	X31	Y31	Z31	X32	Y32	Z32	X33	Y33	Z33	X34	Y34	Z34	X35	Y35	Z35	X36	Y36	Z36	X37	Y37	Z37	X38	Y38	Z38	X39	Y39	Z39	X40	Y40	Z40	X41	Y41	Z41	X42	Y42	Z42	X43	Y43	Z43	X44	Y44	Z44	X45	Y45	Z45	X46	Y46	Z46	X47	Y47	Z47	X48	Y48	Z48	X49	Y49	Z49	X50	Y50	Z50	X51	Y51	Z51	X52	Y52	Z52	

1	0.000	1213.71484	271.30423	1283.48340	1321.89294	323.52219	1299.76172	1082.35083	303.43716	1305.11804	1196.87402	403.13577	1247.94092	1497.08704	298.21170	1292.93896	1638.16003	337.08246	1232.36743	1629.82410	267.68353	1269.62317	1610.29138	317.49966	1388.54871	1566.89539	390.64288	1469.52393	1608.57751	374.03986	1487.60669	887.63727	250.73177	1295.73938	761.00726	279.86035	1234.10486	770.94580	211.81630	1269.20801	810.88855	277.43820	1397.25391	800.50214	338.03934	1474.83093	855.06366	337.09982	1463.01306	1315.33362	437.33527	788.42078	1278.51721	254.40503	849.64307	1357.83997	364.28772	870.41174	1075.54993	413.72104	784.90131	1163.50354	246.46609	843.15302	1053.41907	344.86200	858.13464	1384.35400	398.30069	528.26709	1384.55347	393.72122	413.39444	1398.16626	345.42148	386.33102	1392.68591	290.67346	534.79272	1376.24512	287.85834	416.66733	1383.66772	346.04474	309.05853	1255.23047	332.56961	311.09509	1405.52185	218.04674	296.47733	1387.70715	98.72215	291.80725	1394.07458	214.30045	371.34442	1379.76025	97.99495	373.94989	1369.08496	-72.22021	331.52710	1293.54993	-53.76192	291.87473	1310.58777	-104.26266	378.44073	1394.91846	-135.47322	224.45401	1361.74634	-105.72460	173.09052	1014.09363	385.65369	529.87524	1011.74048	381.58798	389.56833	1018.58588	266.35974	538.06635	1025.02808	267.14609	400.00461	1002.27606	312.14368	327.06137	1132.54968	319.16635	305.06290	986.32019	204.81017	307.61398	1015.44983	208.46465	393.83206	1029.35974	87.42202	382.97134	1029.95776	-94.25233	337.95895	1099.62256	-62.99595	290.45493	1086.43359	-109.72730	379.51385	1013.25354	-159.83348	217.03275	1046.09436	-121.19301	166.38217	
2	0.005	1213.71985	271.45300	1283.40930	1321.86621	323.63086	1299.74817	1082.29565	303.59055	1305.10571	1196.84937	403.23151	1247.93689	1497.07007	298.28006	1292.91089	1638.14246	337.11865	1232.34387	1629.73743	267.73834	1269.67505	1610.28711	317.58521	1388.51855	1566.83960	390.74692	1469.51270	1608.61584	374.03320	1487.55762	887.56952	250.79832	1295.73669	760.98840	279.95413	1234.04590	770.91437	211.91246	1269.18860	810.83051	277.57983	1397.17883	800.41504	338.14569	1474.77161	854.96667	337.21619	1462.98315	1315.41833	437.33118	788.35822	1278.53210	254.42557	849.62177	1358.83472	364.17093	870.47479	1075.58533	413.78162	784.85223	1163.51318	246.46269	843.16766	1053.40027	344.86935	858.13409	1384.32861	398.21707	528.21960	1384.60876	393.66672	413.35828	1398.16846	345.31311	386.29413	1392.62915	290.61981	534.76617	1376.31641	287.96188	416.48767	1383.67639	346.04282	309.03976	1255.22070	332.60052	311.05701	1405.86353	218.16734	296.60269	1387.73486	98.73264	291.76114	1394.13538	214.29240	371.29025	1379.79932	98.00681	373.89047	1369.12195	-72.23517	331.49210	1293.55017	-53.80369	291.77148	1310.66943	-104.24062	378.34848	1394.97314	-135.47203	224.30714	1361.78882	-105.75047	173.03676	1014.07819	385.60168	529.88098	1011.68408	381.51035	389.57364	1018.61279	266.29968	538.04132	1024.88403	267.05307	399.86963	1002.24939	312.11942	327.08722	1132.55164	319.16043	305.05859	986.28699	204.65544	307.80533	1015.52606	208.43422	393.81577	1029.38623	87.40825	382.96362	1030.00110	-94.28186	337.98178	1099.68689	-62.99003	290.43521	1086.46631	-109.71571	379.46384	1013.45734	-159.79607	216.94295	1046.08557	-121.20889	166.36424	
3	0.010	1213.70496	271.65250	1283.37439	1321.85620	323.76541	1299.72888	1082.25757	303.73938	1305.09705	1196.82886	403.38226	1247.89624	1497.02393	298.38702	1292.92285	1638.13098	337.18076	1232.30212	1629.75891	267.83841	1269.56580	1610.29285	317.68140	1388.50037	1566.84900	390.85892	1469.52197	1608.64429	374.14267	1487.47375	887.60699	250.97472	1295.59851	760.95410	280.05841	1233.99878	770.89075	212.03320	1269.13452	810.81213	277.69662	1397.11462	800.28961	338.26276	1474.71912	854.91986	337.32458	1462.85571	1315.38403	437.30600	788.42133	1278.54041	254.42741	849.61176	1358.87720	364.17950	870.40582	1075.56287	413.73212	784.89728	1163.56641	246.46066	843.07861	1053.40491	344.87088	858.12073	1384.42664	398.16830	528.21747	1384.66455	393.59720	413.35291	1398.16187	345.23227	386.27579	1392.58313	290.55432	534.77179	1376.24475	287.71671	416.62067	1383.73083	346.03232	308.98361	1255.23511	332.61545	311.01367	1405.88794	218.14622	296.46994	1387.74304	98.72485	291.72375	1394.17615	214.26202	371.24518	1379.89453	97.97527	373.83691	1369.14832	-72.23299	331.44653	1293.67712	-53.81002	291.78906	1310.71106	-104.22921	378.35052	1394.98267	-135.49214	224.27841	1361.79260	-105.75234	173.04729	1013.99396	385.54587	529.88318	1011.63397	381.44232	389.54401	1018.69672	266.17963	538.03955	1024.96130	266.99188	399.96298	1002.25372	312.11368	327.04935	1132.56921	319.18875	305.08704	986.33459	204.74506	307.78198	1015.51721	208.42334	393.81812	1029.44275	87.41006	382.95364	1030.04016	-94.25094	337.95035	1099.78857	-62.97816	290.32153	1086.58008	-109.71008	379.41861	1013.46356	-159.82574	216.98608	1046.09387	-121.19418	166.37881	
4	0.015	1213.63806	271.79199	1283.43127	1321.81287	323.91803	1299.74365	1082.20044	303.90070	1305.10791	1196.82263	403.51898	1247.87354	1497.01892	298.48581	1292.86572	1638.12683	337.23822	1232.24084	1629.72363	267.89270	1269.57483	1610.27332	317.78043	1388.45691	1566.84863	390.99823	1469.49072	1608.64990	374.24887	1487.46289	887.56543	251.12065	1295.58386	760.92432	280.17749	1233.93530	770.93378	212.13591	1269.04468	810.73932	277.81998	1397.02832	800.20923	338.41422	1474.61829	854.81775	337.45370	1462.83069	1315.44287	437.31500	788.35120	1278.58350	254.44113	849.53125	1358.89624	364.19092	870.40515	1075.53943	413.75183	784.88147	1163.57056	246.46635	843.06354	1053.40234	344.88248	858.10779	1384.50049	398.08997	528.14117	1384.73083	393.51752	413.33151	1398.14893	345.22101	386.23557	1392.59119	290.51968	534.74707	1376.20166	287.66061	416.59314	1383.74756	345.99533	308.96164	1255.22205	332.64639	310.99442	1405.91663	218.17906	296.40515	1387.76599	98.72480	291.68768	1394.25195	214.27333	371.18530	1379.94690	97.99329	373.77371	1369.16797	-72.23831	331.41888	1293.70959	-53.81398	291.69064	1310.78101	-104.22292	378.28577	1395.01477	-135.48393	224.22313	1361.89954	-105.81706	172.84125	1013.95087	385.46002	529.85529	1011.55634	381.37466	389.52509	1018.73779	266.12552	538.03619	1024.96155	266.95328	399.96634	1002.03546	312.04349	327.03821	1132.54663	319.19714	305.08801	986.17334	204.52504	307.61874	1015.47601	208.48949	393.78857	1029.45557	87.42628	382.94904	1030.10803	-94.28600	337.98294	1099.79565	-62.94826	290.27509	1086.64600	-109.71518	379.38797	1013.49225	-159.81461	216.94220	1046.12805	-121.19582	166.36436	
